<svg xmlns="http://www.w3.org/2000/svg" width="1200" height="820" viewBox="0 0 1200 820"><rect width="1200" height="820" fill="#ffffff"/><text x="50" y="55" font-family="Arial,sans-serif" font-size="34" font-weight="700" fill="#0E3455">Тепловая карта критериев ТОП-10</text><text x="50" y="90" font-family="Arial,sans-serif" font-size="18" fill="#68747b">Шкала 0–5; итог учитывает разные веса критериев</text><text x="350" y="145" text-anchor="middle" font-family="Arial,sans-serif" font-size="18" font-weight="700" fill="#26343c">C1</text><text x="450" y="145" text-anchor="middle" font-family="Arial,sans-serif" font-size="18" font-weight="700" fill="#26343c">C2</text><text x="550" y="145" text-anchor="middle" font-family="Arial,sans-serif" font-size="18" font-weight="700" fill="#26343c">C3</text><text x="650" y="145" text-anchor="middle" font-family="Arial,sans-serif" font-size="18" font-weight="700" fill="#26343c">C4</text><text x="750" y="145" text-anchor="middle" font-family="Arial,sans-serif" font-size="18" font-weight="700" fill="#26343c">C5</text><text x="850" y="145" text-anchor="middle" font-family="Arial,sans-serif" font-size="18" font-weight="700" fill="#26343c">C6</text><text x="950" y="145" text-anchor="middle" font-family="Arial,sans-serif" font-size="18" font-weight="700" fill="#26343c">C7</text><text x="50" y="204" font-family="Arial,sans-serif" font-size="18" fill="#26343c">1. Преп-Центр</text><rect x="315" y="175" width="70" height="38" rx="7" fill="#0E3455"/><text x="350" y="201" text-anchor="middle" font-family="Arial,sans-serif" font-size="18" font-weight="700" fill="#ffffff">5</text><rect x="415" y="175" width="70" height="38" rx="7" fill="#0E3455"/><text x="450" y="201" text-anchor="middle" font-family="Arial,sans-serif" font-size="18" font-weight="700" fill="#ffffff">5</text><rect x="515" y="175" width="70" height="38" rx="7" fill="#0E3455"/><text x="550" y="201" text-anchor="middle" font-family="Arial,sans-serif" font-size="18" font-weight="700" fill="#ffffff">5</text><rect x="615" y="175" width="70" height="38" rx="7" fill="#0E3455"/><text x="650" y="201" text-anchor="middle" font-family="Arial,sans-serif" font-size="18" font-weight="700" fill="#ffffff">5</text><rect x="715" y="175" width="70" height="38" rx="7" fill="#0E3455"/><text x="750" y="201" text-anchor="middle" font-family="Arial,sans-serif" font-size="18" font-weight="700" fill="#ffffff">5</text><rect x="815" y="175" width="70" height="38" rx="7" fill="#0E3455"/><text x="850" y="201" text-anchor="middle" font-family="Arial,sans-serif" font-size="18" font-weight="700" fill="#ffffff">5</text><rect x="915" y="175" width="70" height="38" rx="7" fill="#436f82"/><text x="950" y="201" text-anchor="middle" font-family="Arial,sans-serif" font-size="18" font-weight="700" fill="#ffffff">4</text><text x="50" y="260" font-family="Arial,sans-serif" font-size="18" fill="#26343c">2. UpMarket</text><rect x="315" y="231" width="70" height="38" rx="7" fill="#0E3455"/><text x="350" y="257" text-anchor="middle" font-family="Arial,sans-serif" font-size="18" font-weight="700" fill="#ffffff">5</text><rect x="415" y="231" width="70" height="38" rx="7" fill="#0E3455"/><text x="450" y="257" text-anchor="middle" font-family="Arial,sans-serif" font-size="18" font-weight="700" fill="#ffffff">5</text><rect x="515" y="231" width="70" height="38" rx="7" fill="#0E3455"/><text x="550" y="257" text-anchor="middle" font-family="Arial,sans-serif" font-size="18" font-weight="700" fill="#ffffff">5</text><rect x="615" y="231" width="70" height="38" rx="7" fill="#436f82"/><text x="650" y="257" text-anchor="middle" font-family="Arial,sans-serif" font-size="18" font-weight="700" fill="#ffffff">4</text><rect x="715" y="231" width="70" height="38" rx="7" fill="#0E3455"/><text x="750" y="257" text-anchor="middle" font-family="Arial,sans-serif" font-size="18" font-weight="700" fill="#ffffff">5</text><rect x="815" y="231" width="70" height="38" rx="7" fill="#0E3455"/><text x="850" y="257" text-anchor="middle" font-family="Arial,sans-serif" font-size="18" font-weight="700" fill="#ffffff">5</text><rect x="915" y="231" width="70" height="38" rx="7" fill="#436f82"/><text x="950" y="257" text-anchor="middle" font-family="Arial,sans-serif" font-size="18" font-weight="700" fill="#ffffff">4</text><text x="50" y="316" font-family="Arial,sans-serif" font-size="18" fill="#26343c">3. Нитропак</text><rect x="315" y="287" width="70" height="38" rx="7" fill="#0E3455"/><text x="350" y="313" text-anchor="middle" font-family="Arial,sans-serif" font-size="18" font-weight="700" fill="#ffffff">5</text><rect x="415" y="287" width="70" height="38" rx="7" fill="#436f82"/><text x="450" y="313" text-anchor="middle" font-family="Arial,sans-serif" font-size="18" font-weight="700" fill="#ffffff">4</text><rect x="515" y="287" width="70" height="38" rx="7" fill="#0E3455"/><text x="550" y="313" text-anchor="middle" font-family="Arial,sans-serif" font-size="18" font-weight="700" fill="#ffffff">5</text><rect x="615" y="287" width="70" height="38" rx="7" fill="#0E3455"/><text x="650" y="313" text-anchor="middle" font-family="Arial,sans-serif" font-size="18" font-weight="700" fill="#ffffff">5</text><rect x="715" y="287" width="70" height="38" rx="7" fill="#436f82"/><text x="750" y="313" text-anchor="middle" font-family="Arial,sans-serif" font-size="18" font-weight="700" fill="#ffffff">4</text><rect x="815" y="287" width="70" height="38" rx="7" fill="#436f82"/><text x="850" y="313" text-anchor="middle" font-family="Arial,sans-serif" font-size="18" font-weight="700" fill="#ffffff">4</text><rect x="915" y="287" width="70" height="38" rx="7" fill="#0E3455"/><text x="950" y="313" text-anchor="middle" font-family="Arial,sans-serif" font-size="18" font-weight="700" fill="#ffffff">5</text><text x="50" y="372" font-family="Arial,sans-serif" font-size="18" fill="#26343c">4. WBBK</text><rect x="315" y="343" width="70" height="38" rx="7" fill="#436f82"/><text x="350" y="369" text-anchor="middle" font-family="Arial,sans-serif" font-size="18" font-weight="700" fill="#ffffff">4</text><rect x="415" y="343" width="70" height="38" rx="7" fill="#0E3455"/><text x="450" y="369" text-anchor="middle" font-family="Arial,sans-serif" font-size="18" font-weight="700" fill="#ffffff">5</text><rect x="515" y="343" width="70" height="38" rx="7" fill="#436f82"/><text x="550" y="369" text-anchor="middle" font-family="Arial,sans-serif" font-size="18" font-weight="700" fill="#ffffff">4</text><rect x="615" y="343" width="70" height="38" rx="7" fill="#0E3455"/><text x="650" y="369" text-anchor="middle" font-family="Arial,sans-serif" font-size="18" font-weight="700" fill="#ffffff">5</text><rect x="715" y="343" width="70" height="38" rx="7" fill="#0E3455"/><text x="750" y="369" text-anchor="middle" font-family="Arial,sans-serif" font-size="18" font-weight="700" fill="#ffffff">5</text><rect x="815" y="343" width="70" height="38" rx="7" fill="#7fa0ae"/><text x="850" y="369" text-anchor="middle" font-family="Arial,sans-serif" font-size="18" font-weight="700" fill="#17303d">3</text><rect x="915" y="343" width="70" height="38" rx="7" fill="#0E3455"/><text x="950" y="369" text-anchor="middle" font-family="Arial,sans-serif" font-size="18" font-weight="700" fill="#ffffff">5</text><text x="50" y="428" font-family="Arial,sans-serif" font-size="18" fill="#26343c">5. Helpberries</text><rect x="315" y="399" width="70" height="38" rx="7" fill="#436f82"/><text x="350" y="425" text-anchor="middle" font-family="Arial,sans-serif" font-size="18" font-weight="700" fill="#ffffff">4</text><rect x="415" y="399" width="70" height="38" rx="7" fill="#436f82"/><text x="450" y="425" text-anchor="middle" font-family="Arial,sans-serif" font-size="18" font-weight="700" fill="#ffffff">4</text><rect x="515" y="399" width="70" height="38" rx="7" fill="#436f82"/><text x="550" y="425" text-anchor="middle" font-family="Arial,sans-serif" font-size="18" font-weight="700" fill="#ffffff">4</text><rect x="615" y="399" width="70" height="38" rx="7" fill="#0E3455"/><text x="650" y="425" text-anchor="middle" font-family="Arial,sans-serif" font-size="18" font-weight="700" fill="#ffffff">5</text><rect x="715" y="399" width="70" height="38" rx="7" fill="#0E3455"/><text x="750" y="425" text-anchor="middle" font-family="Arial,sans-serif" font-size="18" font-weight="700" fill="#ffffff">5</text><rect x="815" y="399" width="70" height="38" rx="7" fill="#436f82"/><text x="850" y="425" text-anchor="middle" font-family="Arial,sans-serif" font-size="18" font-weight="700" fill="#ffffff">4</text><rect x="915" y="399" width="70" height="38" rx="7" fill="#0E3455"/><text x="950" y="425" text-anchor="middle" font-family="Arial,sans-serif" font-size="18" font-weight="700" fill="#ffffff">5</text><text x="50" y="484" font-family="Arial,sans-serif" font-size="18" fill="#26343c">6. Родной Дом</text><rect x="315" y="455" width="70" height="38" rx="7" fill="#436f82"/><text x="350" y="481" text-anchor="middle" font-family="Arial,sans-serif" font-size="18" font-weight="700" fill="#ffffff">4</text><rect x="415" y="455" width="70" height="38" rx="7" fill="#0E3455"/><text x="450" y="481" text-anchor="middle" font-family="Arial,sans-serif" font-size="18" font-weight="700" fill="#ffffff">5</text><rect x="515" y="455" width="70" height="38" rx="7" fill="#436f82"/><text x="550" y="481" text-anchor="middle" font-family="Arial,sans-serif" font-size="18" font-weight="700" fill="#ffffff">4</text><rect x="615" y="455" width="70" height="38" rx="7" fill="#436f82"/><text x="650" y="481" text-anchor="middle" font-family="Arial,sans-serif" font-size="18" font-weight="700" fill="#ffffff">4</text><rect x="715" y="455" width="70" height="38" rx="7" fill="#0E3455"/><text x="750" y="481" text-anchor="middle" font-family="Arial,sans-serif" font-size="18" font-weight="700" fill="#ffffff">5</text><rect x="815" y="455" width="70" height="38" rx="7" fill="#7fa0ae"/><text x="850" y="481" text-anchor="middle" font-family="Arial,sans-serif" font-size="18" font-weight="700" fill="#17303d">3</text><rect x="915" y="455" width="70" height="38" rx="7" fill="#436f82"/><text x="950" y="481" text-anchor="middle" font-family="Arial,sans-serif" font-size="18" font-weight="700" fill="#ffffff">4</text><text x="50" y="540" font-family="Arial,sans-serif" font-size="18" fill="#26343c">7. Контракт Фактори</text><rect x="315" y="511" width="70" height="38" rx="7" fill="#0E3455"/><text x="350" y="537" text-anchor="middle" font-family="Arial,sans-serif" font-size="18" font-weight="700" fill="#ffffff">5</text><rect x="415" y="511" width="70" height="38" rx="7" fill="#436f82"/><text x="450" y="537" text-anchor="middle" font-family="Arial,sans-serif" font-size="18" font-weight="700" fill="#ffffff">4</text><rect x="515" y="511" width="70" height="38" rx="7" fill="#0E3455"/><text x="550" y="537" text-anchor="middle" font-family="Arial,sans-serif" font-size="18" font-weight="700" fill="#ffffff">5</text><rect x="615" y="511" width="70" height="38" rx="7" fill="#436f82"/><text x="650" y="537" text-anchor="middle" font-family="Arial,sans-serif" font-size="18" font-weight="700" fill="#ffffff">4</text><rect x="715" y="511" width="70" height="38" rx="7" fill="#7fa0ae"/><text x="750" y="537" text-anchor="middle" font-family="Arial,sans-serif" font-size="18" font-weight="700" fill="#17303d">3</text><rect x="815" y="511" width="70" height="38" rx="7" fill="#436f82"/><text x="850" y="537" text-anchor="middle" font-family="Arial,sans-serif" font-size="18" font-weight="700" fill="#ffffff">4</text><rect x="915" y="511" width="70" height="38" rx="7" fill="#7fa0ae"/><text x="950" y="537" text-anchor="middle" font-family="Arial,sans-serif" font-size="18" font-weight="700" fill="#17303d">3</text><text x="50" y="596" font-family="Arial,sans-serif" font-size="18" fill="#26343c">8. U2Pack</text><rect x="315" y="567" width="70" height="38" rx="7" fill="#0E3455"/><text x="350" y="593" text-anchor="middle" font-family="Arial,sans-serif" font-size="18" font-weight="700" fill="#ffffff">5</text><rect x="415" y="567" width="70" height="38" rx="7" fill="#7fa0ae"/><text x="450" y="593" text-anchor="middle" font-family="Arial,sans-serif" font-size="18" font-weight="700" fill="#17303d">3</text><rect x="515" y="567" width="70" height="38" rx="7" fill="#0E3455"/><text x="550" y="593" text-anchor="middle" font-family="Arial,sans-serif" font-size="18" font-weight="700" fill="#ffffff">5</text><rect x="615" y="567" width="70" height="38" rx="7" fill="#436f82"/><text x="650" y="593" text-anchor="middle" font-family="Arial,sans-serif" font-size="18" font-weight="700" fill="#ffffff">4</text><rect x="715" y="567" width="70" height="38" rx="7" fill="#7fa0ae"/><text x="750" y="593" text-anchor="middle" font-family="Arial,sans-serif" font-size="18" font-weight="700" fill="#17303d">3</text><rect x="815" y="567" width="70" height="38" rx="7" fill="#0E3455"/><text x="850" y="593" text-anchor="middle" font-family="Arial,sans-serif" font-size="18" font-weight="700" fill="#ffffff">5</text><rect x="915" y="567" width="70" height="38" rx="7" fill="#7fa0ae"/><text x="950" y="593" text-anchor="middle" font-family="Arial,sans-serif" font-size="18" font-weight="700" fill="#17303d">3</text><text x="50" y="652" font-family="Arial,sans-serif" font-size="18" fill="#26343c">9. FullBox</text><rect x="315" y="623" width="70" height="38" rx="7" fill="#7fa0ae"/><text x="350" y="649" text-anchor="middle" font-family="Arial,sans-serif" font-size="18" font-weight="700" fill="#17303d">3</text><rect x="415" y="623" width="70" height="38" rx="7" fill="#436f82"/><text x="450" y="649" text-anchor="middle" font-family="Arial,sans-serif" font-size="18" font-weight="700" fill="#ffffff">4</text><rect x="515" y="623" width="70" height="38" rx="7" fill="#7fa0ae"/><text x="550" y="649" text-anchor="middle" font-family="Arial,sans-serif" font-size="18" font-weight="700" fill="#17303d">3</text><rect x="615" y="623" width="70" height="38" rx="7" fill="#0E3455"/><text x="650" y="649" text-anchor="middle" font-family="Arial,sans-serif" font-size="18" font-weight="700" fill="#ffffff">5</text><rect x="715" y="623" width="70" height="38" rx="7" fill="#0E3455"/><text x="750" y="649" text-anchor="middle" font-family="Arial,sans-serif" font-size="18" font-weight="700" fill="#ffffff">5</text><rect x="815" y="623" width="70" height="38" rx="7" fill="#436f82"/><text x="850" y="649" text-anchor="middle" font-family="Arial,sans-serif" font-size="18" font-weight="700" fill="#ffffff">4</text><rect x="915" y="623" width="70" height="38" rx="7" fill="#0E3455"/><text x="950" y="649" text-anchor="middle" font-family="Arial,sans-serif" font-size="18" font-weight="700" fill="#ffffff">5</text><text x="50" y="708" font-family="Arial,sans-serif" font-size="18" fill="#26343c">10. Техскладлогистик</text><rect x="315" y="679" width="70" height="38" rx="7" fill="#436f82"/><text x="350" y="705" text-anchor="middle" font-family="Arial,sans-serif" font-size="18" font-weight="700" fill="#ffffff">4</text><rect x="415" y="679" width="70" height="38" rx="7" fill="#0E3455"/><text x="450" y="705" text-anchor="middle" font-family="Arial,sans-serif" font-size="18" font-weight="700" fill="#ffffff">5</text><rect x="515" y="679" width="70" height="38" rx="7" fill="#7fa0ae"/><text x="550" y="705" text-anchor="middle" font-family="Arial,sans-serif" font-size="18" font-weight="700" fill="#17303d">3</text><rect x="615" y="679" width="70" height="38" rx="7" fill="#436f82"/><text x="650" y="705" text-anchor="middle" font-family="Arial,sans-serif" font-size="18" font-weight="700" fill="#ffffff">4</text><rect x="715" y="679" width="70" height="38" rx="7" fill="#7fa0ae"/><text x="750" y="705" text-anchor="middle" font-family="Arial,sans-serif" font-size="18" font-weight="700" fill="#17303d">3</text><rect x="815" y="679" width="70" height="38" rx="7" fill="#436f82"/><text x="850" y="705" text-anchor="middle" font-family="Arial,sans-serif" font-size="18" font-weight="700" fill="#ffffff">4</text><rect x="915" y="679" width="70" height="38" rx="7" fill="#436f82"/><text x="950" y="705" text-anchor="middle" font-family="Arial,sans-serif" font-size="18" font-weight="700" fill="#ffffff">4</text><text x="50" y="765" font-family="Arial,sans-serif" font-size="16" fill="#6f7c84">C1 профиль категории · C2 входной контроль · C3 упаковка · C4 маркировка · C5 FBO/FBS · C6 кейсы · C7 прозрачность</text></svg>